<mxfile host="app.diagrams.net" modified="2023-06-08T20:42:03.835Z" agent="Mozilla/5.0 (Windows NT 10.0; Win64; x64) AppleWebKit/537.36 (KHTML, like Gecko) Chrome/114.0.0.0 Safari/537.36" etag="2eAiE89x_5B2TUhJMWS9" version="21.3.7" type="device">
  <diagram name="Page-1" id="2YBvvXClWsGukQMizWep">
    <mxGraphModel dx="1424" dy="1508" grid="1" gridSize="10" guides="1" tooltips="1" connect="1" arrows="1" fold="1" page="1" pageScale="1" pageWidth="850" pageHeight="1100" math="0" shadow="0">
      <root>
        <mxCell id="0" />
        <mxCell id="1" parent="0" />
        <mxCell id="M9PD0NIGUe1Zu08BfeJv-1" value="GetCoursesCalls" style="shape=umlLifeline;perimeter=lifelinePerimeter;whiteSpace=wrap;html=1;container=0;dropTarget=0;collapsible=0;recursiveResize=0;outlineConnect=0;portConstraint=eastwest;newEdgeStyle={&quot;edgeStyle&quot;:&quot;elbowEdgeStyle&quot;,&quot;elbow&quot;:&quot;vertical&quot;,&quot;curved&quot;:0,&quot;rounded&quot;:0};fillColor=#1ba1e2;fontColor=#ffffff;strokeColor=#006EAF;" vertex="1" parent="1">
          <mxGeometry x="1910" y="210" width="120" height="1440" as="geometry" />
        </mxCell>
        <mxCell id="M9PD0NIGUe1Zu08BfeJv-2" value="" style="html=1;points=[];perimeter=orthogonalPerimeter;outlineConnect=0;targetShapes=umlLifeline;portConstraint=eastwest;newEdgeStyle={&quot;edgeStyle&quot;:&quot;elbowEdgeStyle&quot;,&quot;elbow&quot;:&quot;vertical&quot;,&quot;curved&quot;:0,&quot;rounded&quot;:0};" vertex="1" parent="1">
          <mxGeometry x="1965" y="820" width="10" height="700" as="geometry" />
        </mxCell>
        <mxCell id="M9PD0NIGUe1Zu08BfeJv-3" value="PageOrchestrator" style="shape=umlLifeline;perimeter=lifelinePerimeter;whiteSpace=wrap;html=1;container=0;dropTarget=0;collapsible=0;recursiveResize=0;outlineConnect=0;portConstraint=eastwest;newEdgeStyle={&quot;edgeStyle&quot;:&quot;elbowEdgeStyle&quot;,&quot;elbow&quot;:&quot;vertical&quot;,&quot;curved&quot;:0,&quot;rounded&quot;:0};" vertex="1" parent="1">
          <mxGeometry x="800" y="210" width="115" height="640" as="geometry" />
        </mxCell>
        <mxCell id="M9PD0NIGUe1Zu08BfeJv-4" value="" style="html=1;points=[];perimeter=orthogonalPerimeter;outlineConnect=0;targetShapes=umlLifeline;portConstraint=eastwest;newEdgeStyle={&quot;edgeStyle&quot;:&quot;elbowEdgeStyle&quot;,&quot;elbow&quot;:&quot;vertical&quot;,&quot;curved&quot;:0,&quot;rounded&quot;:0};" vertex="1" parent="M9PD0NIGUe1Zu08BfeJv-3">
          <mxGeometry x="52.5" y="70" width="10" height="550" as="geometry" />
        </mxCell>
        <mxCell id="M9PD0NIGUe1Zu08BfeJv-7" value="CoursesList" style="shape=umlLifeline;perimeter=lifelinePerimeter;whiteSpace=wrap;html=1;container=0;dropTarget=0;collapsible=0;recursiveResize=0;outlineConnect=0;portConstraint=eastwest;newEdgeStyle={&quot;edgeStyle&quot;:&quot;elbowEdgeStyle&quot;,&quot;elbow&quot;:&quot;vertical&quot;,&quot;curved&quot;:0,&quot;rounded&quot;:0};" vertex="1" parent="1">
          <mxGeometry x="1040" y="210" width="90" height="640" as="geometry" />
        </mxCell>
        <mxCell id="M9PD0NIGUe1Zu08BfeJv-8" value="" style="html=1;points=[];perimeter=orthogonalPerimeter;outlineConnect=0;targetShapes=umlLifeline;portConstraint=eastwest;newEdgeStyle={&quot;edgeStyle&quot;:&quot;elbowEdgeStyle&quot;,&quot;elbow&quot;:&quot;vertical&quot;,&quot;curved&quot;:0,&quot;rounded&quot;:0};" vertex="1" parent="M9PD0NIGUe1Zu08BfeJv-7">
          <mxGeometry x="40" y="80" width="10" height="510" as="geometry" />
        </mxCell>
        <mxCell id="M9PD0NIGUe1Zu08BfeJv-9" value="" style="html=1;points=[];perimeter=orthogonalPerimeter;outlineConnect=0;targetShapes=umlLifeline;portConstraint=eastwest;newEdgeStyle={&quot;edgeStyle&quot;:&quot;elbowEdgeStyle&quot;,&quot;elbow&quot;:&quot;vertical&quot;,&quot;curved&quot;:0,&quot;rounded&quot;:0};" vertex="1" parent="M9PD0NIGUe1Zu08BfeJv-7">
          <mxGeometry x="45" y="480" width="10" height="90" as="geometry" />
        </mxCell>
        <mxCell id="M9PD0NIGUe1Zu08BfeJv-10" value="update(coursesToShow, currCall)" style="html=1;align=left;spacingLeft=2;endArrow=block;rounded=0;edgeStyle=orthogonalEdgeStyle;curved=0;rounded=0;" edge="1" parent="M9PD0NIGUe1Zu08BfeJv-7" target="M9PD0NIGUe1Zu08BfeJv-9">
          <mxGeometry relative="1" as="geometry">
            <mxPoint x="50" y="460" as="sourcePoint" />
            <Array as="points">
              <mxPoint x="80" y="490" />
            </Array>
          </mxGeometry>
        </mxCell>
        <mxCell id="M9PD0NIGUe1Zu08BfeJv-11" value="CallsList" style="shape=umlLifeline;perimeter=lifelinePerimeter;whiteSpace=wrap;html=1;container=0;dropTarget=0;collapsible=0;recursiveResize=0;outlineConnect=0;portConstraint=eastwest;newEdgeStyle={&quot;edgeStyle&quot;:&quot;elbowEdgeStyle&quot;,&quot;elbow&quot;:&quot;vertical&quot;,&quot;curved&quot;:0,&quot;rounded&quot;:0};" vertex="1" parent="1">
          <mxGeometry x="1235" y="210" width="70" height="1480" as="geometry" />
        </mxCell>
        <mxCell id="M9PD0NIGUe1Zu08BfeJv-12" value="" style="html=1;points=[];perimeter=orthogonalPerimeter;outlineConnect=0;targetShapes=umlLifeline;portConstraint=eastwest;newEdgeStyle={&quot;edgeStyle&quot;:&quot;elbowEdgeStyle&quot;,&quot;elbow&quot;:&quot;vertical&quot;,&quot;curved&quot;:0,&quot;rounded&quot;:0};" vertex="1" parent="M9PD0NIGUe1Zu08BfeJv-11">
          <mxGeometry x="30" y="590" width="10" height="770" as="geometry" />
        </mxCell>
        <mxCell id="M9PD0NIGUe1Zu08BfeJv-13" value="" style="html=1;points=[];perimeter=orthogonalPerimeter;outlineConnect=0;targetShapes=umlLifeline;portConstraint=eastwest;newEdgeStyle={&quot;edgeStyle&quot;:&quot;elbowEdgeStyle&quot;,&quot;elbow&quot;:&quot;vertical&quot;,&quot;curved&quot;:0,&quot;rounded&quot;:0};" vertex="1" parent="M9PD0NIGUe1Zu08BfeJv-11">
          <mxGeometry x="35" y="1320" width="10" height="27" as="geometry" />
        </mxCell>
        <mxCell id="M9PD0NIGUe1Zu08BfeJv-14" value="update(callsToShow)" style="html=1;align=left;spacingLeft=2;endArrow=block;rounded=0;edgeStyle=orthogonalEdgeStyle;curved=0;rounded=0;" edge="1" parent="M9PD0NIGUe1Zu08BfeJv-11" target="M9PD0NIGUe1Zu08BfeJv-13">
          <mxGeometry relative="1" as="geometry">
            <mxPoint x="40" y="1300" as="sourcePoint" />
            <Array as="points">
              <mxPoint x="70" y="1330" />
            </Array>
          </mxGeometry>
        </mxCell>
        <mxCell id="M9PD0NIGUe1Zu08BfeJv-17" value="GetStudentCourses" style="shape=umlLifeline;perimeter=lifelinePerimeter;whiteSpace=wrap;html=1;container=0;dropTarget=0;collapsible=0;recursiveResize=0;outlineConnect=0;portConstraint=eastwest;newEdgeStyle={&quot;edgeStyle&quot;:&quot;elbowEdgeStyle&quot;,&quot;elbow&quot;:&quot;vertical&quot;,&quot;curved&quot;:0,&quot;rounded&quot;:0};fillColor=#1ba1e2;fontColor=#ffffff;strokeColor=#006EAF;" vertex="1" parent="1">
          <mxGeometry x="1320" y="210" width="110" height="590" as="geometry" />
        </mxCell>
        <mxCell id="M9PD0NIGUe1Zu08BfeJv-18" value="" style="html=1;points=[];perimeter=orthogonalPerimeter;outlineConnect=0;targetShapes=umlLifeline;portConstraint=eastwest;newEdgeStyle={&quot;edgeStyle&quot;:&quot;elbowEdgeStyle&quot;,&quot;elbow&quot;:&quot;vertical&quot;,&quot;curved&quot;:0,&quot;rounded&quot;:0};" vertex="1" parent="M9PD0NIGUe1Zu08BfeJv-17">
          <mxGeometry x="50" y="90" width="10" height="450" as="geometry" />
        </mxCell>
        <mxCell id="M9PD0NIGUe1Zu08BfeJv-19" value="Session" style="shape=umlLifeline;perimeter=lifelinePerimeter;whiteSpace=wrap;html=1;container=0;dropTarget=0;collapsible=0;recursiveResize=0;outlineConnect=0;portConstraint=eastwest;newEdgeStyle={&quot;edgeStyle&quot;:&quot;elbowEdgeStyle&quot;,&quot;elbow&quot;:&quot;vertical&quot;,&quot;curved&quot;:0,&quot;rounded&quot;:0};fillColor=#1ba1e2;fontColor=#ffffff;strokeColor=#006EAF;" vertex="1" parent="1">
          <mxGeometry x="1460" y="210" width="60" height="810" as="geometry" />
        </mxCell>
        <mxCell id="M9PD0NIGUe1Zu08BfeJv-20" value="" style="html=1;points=[];perimeter=orthogonalPerimeter;outlineConnect=0;targetShapes=umlLifeline;portConstraint=eastwest;newEdgeStyle={&quot;edgeStyle&quot;:&quot;elbowEdgeStyle&quot;,&quot;elbow&quot;:&quot;vertical&quot;,&quot;curved&quot;:0,&quot;rounded&quot;:0};" vertex="1" parent="M9PD0NIGUe1Zu08BfeJv-19">
          <mxGeometry x="25" y="100" width="10" height="30" as="geometry" />
        </mxCell>
        <mxCell id="M9PD0NIGUe1Zu08BfeJv-21" value="CourseDAO" style="shape=umlLifeline;perimeter=lifelinePerimeter;whiteSpace=wrap;html=1;container=0;dropTarget=0;collapsible=0;recursiveResize=0;outlineConnect=0;portConstraint=eastwest;newEdgeStyle={&quot;edgeStyle&quot;:&quot;elbowEdgeStyle&quot;,&quot;elbow&quot;:&quot;vertical&quot;,&quot;curved&quot;:0,&quot;rounded&quot;:0};fillColor=#1ba1e2;fontColor=#ffffff;strokeColor=#006EAF;" vertex="1" parent="1">
          <mxGeometry x="1780" y="210" width="120" height="940" as="geometry" />
        </mxCell>
        <mxCell id="M9PD0NIGUe1Zu08BfeJv-25" value="show(functionToShowDefault)" style="html=1;verticalAlign=bottom;endArrow=block;edgeStyle=elbowEdgeStyle;elbow=vertical;curved=0;rounded=0;" edge="1" parent="1" source="M9PD0NIGUe1Zu08BfeJv-4" target="M9PD0NIGUe1Zu08BfeJv-8">
          <mxGeometry x="-0.0007" relative="1" as="geometry">
            <mxPoint x="465" y="760" as="sourcePoint" />
            <Array as="points">
              <mxPoint x="870" y="290" />
              <mxPoint x="715" y="280" />
              <mxPoint x="679" y="760" />
              <mxPoint x="503" y="769.17" />
              <mxPoint x="483" y="779.17" />
              <mxPoint x="503" y="769.17" />
            </Array>
            <mxPoint x="912" y="760" as="targetPoint" />
            <mxPoint as="offset" />
          </mxGeometry>
        </mxCell>
        <mxCell id="M9PD0NIGUe1Zu08BfeJv-26" value="GET /GetStudentCourses" style="html=1;verticalAlign=bottom;endArrow=block;edgeStyle=elbowEdgeStyle;elbow=vertical;curved=0;rounded=0;" edge="1" parent="1" source="M9PD0NIGUe1Zu08BfeJv-8" target="M9PD0NIGUe1Zu08BfeJv-18">
          <mxGeometry x="-0.0007" relative="1" as="geometry">
            <mxPoint x="959" y="290" as="sourcePoint" />
            <Array as="points">
              <mxPoint x="1160" y="300" />
              <mxPoint x="1071" y="290" />
              <mxPoint x="1211" y="280" />
              <mxPoint x="1175" y="760" />
              <mxPoint x="999" y="769.17" />
              <mxPoint x="979" y="779.17" />
              <mxPoint x="999" y="769.17" />
            </Array>
            <mxPoint x="1280" y="120" as="targetPoint" />
            <mxPoint as="offset" />
          </mxGeometry>
        </mxCell>
        <mxCell id="M9PD0NIGUe1Zu08BfeJv-27" value="getAttribute(&quot;user&quot;)" style="html=1;verticalAlign=bottom;endArrow=block;edgeStyle=elbowEdgeStyle;elbow=vertical;curved=0;rounded=0;" edge="1" parent="1" source="M9PD0NIGUe1Zu08BfeJv-18" target="M9PD0NIGUe1Zu08BfeJv-19">
          <mxGeometry x="-0.003" width="80" relative="1" as="geometry">
            <mxPoint x="1400" y="320" as="sourcePoint" />
            <mxPoint x="1480" y="320" as="targetPoint" />
            <Array as="points">
              <mxPoint x="1390" y="310" />
            </Array>
            <mxPoint as="offset" />
          </mxGeometry>
        </mxCell>
        <mxCell id="M9PD0NIGUe1Zu08BfeJv-28" value="user" style="html=1;verticalAlign=bottom;endArrow=open;dashed=1;endSize=8;edgeStyle=elbowEdgeStyle;elbow=vertical;curved=0;rounded=0;" edge="1" parent="1" source="M9PD0NIGUe1Zu08BfeJv-20" target="M9PD0NIGUe1Zu08BfeJv-18">
          <mxGeometry relative="1" as="geometry">
            <mxPoint x="1490" y="340" as="sourcePoint" />
            <mxPoint x="1410" y="340" as="targetPoint" />
            <Array as="points">
              <mxPoint x="1450" y="340" />
              <mxPoint x="1470" y="340" />
            </Array>
          </mxGeometry>
        </mxCell>
        <mxCell id="M9PD0NIGUe1Zu08BfeJv-29" value="alt" style="shape=umlFrame;whiteSpace=wrap;html=1;pointerEvents=0;width=55;height=20;" vertex="1" parent="1">
          <mxGeometry x="1310" y="370" width="1080" height="280" as="geometry" />
        </mxCell>
        <mxCell id="M9PD0NIGUe1Zu08BfeJv-30" value="try" style="text;html=1;strokeColor=none;fillColor=none;align=center;verticalAlign=middle;whiteSpace=wrap;rounded=0;fontStyle=3;fontColor=#FF8000;" vertex="1" parent="1">
          <mxGeometry x="1350" y="370" width="95" height="20" as="geometry" />
        </mxCell>
        <mxCell id="M9PD0NIGUe1Zu08BfeJv-31" value="" style="line;strokeWidth=3;fillColor=#80FF00;align=left;verticalAlign=middle;spacingTop=-1;spacingLeft=3;spacingRight=3;rotatable=0;labelPosition=right;points=[];portConstraint=eastwest;strokeColor=#80FF00;dashed=1;fontColor=#ffffff;fontStyle=0" vertex="1" parent="1">
          <mxGeometry x="1275" y="570" width="1125" height="8" as="geometry" />
        </mxCell>
        <mxCell id="M9PD0NIGUe1Zu08BfeJv-32" value="Catch(SQLException | StudentDAOException)" style="text;html=1;align=center;verticalAlign=middle;whiteSpace=wrap;rounded=0;fontStyle=3;fontColor=#FF8000;" vertex="1" parent="1">
          <mxGeometry x="1326.25" y="590" width="142.5" height="20" as="geometry" />
        </mxCell>
        <mxCell id="M9PD0NIGUe1Zu08BfeJv-33" value="getId()" style="html=1;verticalAlign=bottom;endArrow=block;edgeStyle=elbowEdgeStyle;elbow=vertical;curved=0;rounded=0;" edge="1" parent="1" source="M9PD0NIGUe1Zu08BfeJv-18" target="M9PD0NIGUe1Zu08BfeJv-35">
          <mxGeometry width="80" relative="1" as="geometry">
            <mxPoint x="1380" y="410" as="sourcePoint" />
            <mxPoint x="1550" y="330" as="targetPoint" />
            <Array as="points">
              <mxPoint x="1530" y="400" />
            </Array>
          </mxGeometry>
        </mxCell>
        <mxCell id="M9PD0NIGUe1Zu08BfeJv-34" value="User" style="shape=umlLifeline;perimeter=lifelinePerimeter;whiteSpace=wrap;html=1;container=0;dropTarget=0;collapsible=0;recursiveResize=0;outlineConnect=0;portConstraint=eastwest;newEdgeStyle={&quot;edgeStyle&quot;:&quot;elbowEdgeStyle&quot;,&quot;elbow&quot;:&quot;vertical&quot;,&quot;curved&quot;:0,&quot;rounded&quot;:0};fillColor=#1ba1e2;fontColor=#ffffff;strokeColor=#006EAF;" vertex="1" parent="1">
          <mxGeometry x="1530" y="210" width="60" height="860" as="geometry" />
        </mxCell>
        <mxCell id="M9PD0NIGUe1Zu08BfeJv-35" value="" style="html=1;points=[];perimeter=orthogonalPerimeter;outlineConnect=0;targetShapes=umlLifeline;portConstraint=eastwest;newEdgeStyle={&quot;edgeStyle&quot;:&quot;elbowEdgeStyle&quot;,&quot;elbow&quot;:&quot;vertical&quot;,&quot;curved&quot;:0,&quot;rounded&quot;:0};" vertex="1" parent="M9PD0NIGUe1Zu08BfeJv-34">
          <mxGeometry x="25" y="189.13" width="10" height="30" as="geometry" />
        </mxCell>
        <mxCell id="M9PD0NIGUe1Zu08BfeJv-36" value="" style="html=1;points=[];perimeter=orthogonalPerimeter;outlineConnect=0;targetShapes=umlLifeline;portConstraint=eastwest;newEdgeStyle={&quot;edgeStyle&quot;:&quot;elbowEdgeStyle&quot;,&quot;elbow&quot;:&quot;vertical&quot;,&quot;curved&quot;:0,&quot;rounded&quot;:0};" vertex="1" parent="M9PD0NIGUe1Zu08BfeJv-34">
          <mxGeometry x="25" y="710" width="10" height="30" as="geometry" />
        </mxCell>
        <mxCell id="M9PD0NIGUe1Zu08BfeJv-37" value="getId()" style="html=1;verticalAlign=bottom;endArrow=block;edgeStyle=elbowEdgeStyle;elbow=vertical;curved=0;rounded=0;" edge="1" parent="M9PD0NIGUe1Zu08BfeJv-34" target="M9PD0NIGUe1Zu08BfeJv-36">
          <mxGeometry x="-0.003" width="80" relative="1" as="geometry">
            <mxPoint x="435" y="710" as="sourcePoint" />
            <mxPoint x="-35" y="710" as="targetPoint" />
            <Array as="points">
              <mxPoint x="80" y="710" />
            </Array>
            <mxPoint as="offset" />
          </mxGeometry>
        </mxCell>
        <mxCell id="M9PD0NIGUe1Zu08BfeJv-38" value="userId" style="html=1;verticalAlign=bottom;endArrow=open;dashed=1;endSize=8;edgeStyle=elbowEdgeStyle;elbow=vertical;curved=0;rounded=0;" edge="1" parent="M9PD0NIGUe1Zu08BfeJv-34" source="M9PD0NIGUe1Zu08BfeJv-36">
          <mxGeometry relative="1" as="geometry">
            <mxPoint x="60" y="740" as="sourcePoint" />
            <mxPoint x="435" y="740.47" as="targetPoint" />
            <Array as="points">
              <mxPoint x="410" y="740.47" />
              <mxPoint x="430" y="740.47" />
            </Array>
          </mxGeometry>
        </mxCell>
        <mxCell id="M9PD0NIGUe1Zu08BfeJv-39" value="userId" style="html=1;verticalAlign=bottom;endArrow=open;dashed=1;endSize=8;edgeStyle=elbowEdgeStyle;elbow=vertical;curved=0;rounded=0;" edge="1" parent="1" source="M9PD0NIGUe1Zu08BfeJv-35" target="M9PD0NIGUe1Zu08BfeJv-18">
          <mxGeometry relative="1" as="geometry">
            <mxPoint x="1590" y="429.13" as="sourcePoint" />
            <mxPoint x="1480" y="429.13" as="targetPoint" />
            <Array as="points">
              <mxPoint x="1530" y="430" />
              <mxPoint x="1550" y="420" />
            </Array>
          </mxGeometry>
        </mxCell>
        <mxCell id="M9PD0NIGUe1Zu08BfeJv-40" value="findAllCoursesByStudentId(userId)" style="html=1;verticalAlign=bottom;endArrow=block;edgeStyle=elbowEdgeStyle;elbow=vertical;curved=0;rounded=0;" edge="1" parent="1" target="M9PD0NIGUe1Zu08BfeJv-41">
          <mxGeometry width="80" relative="1" as="geometry">
            <mxPoint x="1380" y="450" as="sourcePoint" />
            <mxPoint x="1600" y="450" as="targetPoint" />
            <Array as="points">
              <mxPoint x="1650" y="460" />
              <mxPoint x="1530" y="450" />
            </Array>
          </mxGeometry>
        </mxCell>
        <mxCell id="M9PD0NIGUe1Zu08BfeJv-41" value="" style="html=1;points=[];perimeter=orthogonalPerimeter;outlineConnect=0;targetShapes=umlLifeline;portConstraint=eastwest;newEdgeStyle={&quot;edgeStyle&quot;:&quot;elbowEdgeStyle&quot;,&quot;elbow&quot;:&quot;vertical&quot;,&quot;curved&quot;:0,&quot;rounded&quot;:0};" vertex="1" parent="1">
          <mxGeometry x="1835" y="460" width="10" height="20" as="geometry" />
        </mxCell>
        <mxCell id="M9PD0NIGUe1Zu08BfeJv-42" value="courses" style="html=1;verticalAlign=bottom;endArrow=open;dashed=1;endSize=8;edgeStyle=elbowEdgeStyle;elbow=vertical;curved=0;rounded=0;" edge="1" parent="1" source="M9PD0NIGUe1Zu08BfeJv-41" target="M9PD0NIGUe1Zu08BfeJv-18">
          <mxGeometry relative="1" as="geometry">
            <mxPoint x="1685" y="480" as="sourcePoint" />
            <mxPoint x="1470" y="480" as="targetPoint" />
            <Array as="points">
              <mxPoint x="1660" y="480.13" />
            </Array>
          </mxGeometry>
        </mxCell>
        <mxCell id="M9PD0NIGUe1Zu08BfeJv-43" value="&lt;font style=&quot;font-size: 10px;&quot;&gt;forEach: course&lt;/font&gt;" style="shape=umlFrame;whiteSpace=wrap;html=1;pointerEvents=0;width=83;height=25;" vertex="1" parent="1">
          <mxGeometry x="1320" y="495" width="1030" height="65" as="geometry" />
        </mxCell>
        <mxCell id="M9PD0NIGUe1Zu08BfeJv-44" value="setStatus(errorCode)" style="html=1;verticalAlign=bottom;endArrow=block;edgeStyle=elbowEdgeStyle;elbow=vertical;curved=0;rounded=0;" edge="1" parent="1" source="M9PD0NIGUe1Zu08BfeJv-18" target="M9PD0NIGUe1Zu08BfeJv-46">
          <mxGeometry width="80" relative="1" as="geometry">
            <mxPoint x="1470" y="640" as="sourcePoint" />
            <mxPoint x="1550" y="640" as="targetPoint" />
            <Array as="points">
              <mxPoint x="1670" y="620" />
              <mxPoint x="1640" y="640" />
            </Array>
          </mxGeometry>
        </mxCell>
        <mxCell id="M9PD0NIGUe1Zu08BfeJv-45" value="HttpServletResponse" style="shape=umlLifeline;perimeter=lifelinePerimeter;whiteSpace=wrap;html=1;container=0;dropTarget=0;collapsible=0;recursiveResize=0;outlineConnect=0;portConstraint=eastwest;newEdgeStyle={&quot;edgeStyle&quot;:&quot;elbowEdgeStyle&quot;,&quot;elbow&quot;:&quot;vertical&quot;,&quot;curved&quot;:0,&quot;rounded&quot;:0};fillColor=#1ba1e2;fontColor=#ffffff;strokeColor=#006EAF;" vertex="1" parent="1">
          <mxGeometry x="1600" y="210" width="130" height="1310" as="geometry" />
        </mxCell>
        <mxCell id="M9PD0NIGUe1Zu08BfeJv-46" value="" style="html=1;points=[];perimeter=orthogonalPerimeter;outlineConnect=0;targetShapes=umlLifeline;portConstraint=eastwest;newEdgeStyle={&quot;edgeStyle&quot;:&quot;elbowEdgeStyle&quot;,&quot;elbow&quot;:&quot;vertical&quot;,&quot;curved&quot;:0,&quot;rounded&quot;:0};" vertex="1" parent="M9PD0NIGUe1Zu08BfeJv-45">
          <mxGeometry x="60" y="410" width="10" height="20" as="geometry" />
        </mxCell>
        <mxCell id="M9PD0NIGUe1Zu08BfeJv-47" value="" style="html=1;points=[];perimeter=orthogonalPerimeter;outlineConnect=0;targetShapes=umlLifeline;portConstraint=eastwest;newEdgeStyle={&quot;edgeStyle&quot;:&quot;elbowEdgeStyle&quot;,&quot;elbow&quot;:&quot;vertical&quot;,&quot;curved&quot;:0,&quot;rounded&quot;:0};" vertex="1" parent="M9PD0NIGUe1Zu08BfeJv-45">
          <mxGeometry x="60" y="1240" width="10" height="20" as="geometry" />
        </mxCell>
        <mxCell id="M9PD0NIGUe1Zu08BfeJv-48" value="coursesToShow" style="html=1;verticalAlign=bottom;endArrow=open;dashed=1;endSize=8;edgeStyle=elbowEdgeStyle;elbow=vertical;curved=0;rounded=0;" edge="1" parent="1" source="M9PD0NIGUe1Zu08BfeJv-18" target="M9PD0NIGUe1Zu08BfeJv-8">
          <mxGeometry relative="1" as="geometry">
            <mxPoint x="1350" y="700" as="sourcePoint" />
            <mxPoint x="1270" y="700" as="targetPoint" />
            <Array as="points">
              <mxPoint x="1270" y="660" />
            </Array>
          </mxGeometry>
        </mxCell>
        <mxCell id="M9PD0NIGUe1Zu08BfeJv-49" value="functionToShowDefault()" style="html=1;align=left;spacingLeft=2;endArrow=block;rounded=0;edgeStyle=orthogonalEdgeStyle;curved=0;rounded=0;" edge="1" parent="1" source="M9PD0NIGUe1Zu08BfeJv-9">
          <mxGeometry relative="1" as="geometry">
            <mxPoint x="1090" y="710" as="sourcePoint" />
            <Array as="points">
              <mxPoint x="1120" y="710" />
              <mxPoint x="1120" y="740" />
            </Array>
            <mxPoint x="1095" y="740" as="targetPoint" />
          </mxGeometry>
        </mxCell>
        <mxCell id="M9PD0NIGUe1Zu08BfeJv-50" value="dispatchEvent&lt;br&gt;(&quot;click&quot;)&amp;nbsp;" style="html=1;verticalAlign=bottom;endArrow=block;edgeStyle=elbowEdgeStyle;elbow=vertical;curved=0;rounded=0;" edge="1" parent="1" source="M9PD0NIGUe1Zu08BfeJv-9" target="M9PD0NIGUe1Zu08BfeJv-52">
          <mxGeometry width="80" relative="1" as="geometry">
            <mxPoint x="1195" y="750" as="sourcePoint" />
            <mxPoint x="1275" y="750" as="targetPoint" />
            <Array as="points">
              <mxPoint x="1175" y="780" />
              <mxPoint x="1215" y="770" />
              <mxPoint x="1205" y="760" />
            </Array>
          </mxGeometry>
        </mxCell>
        <mxCell id="M9PD0NIGUe1Zu08BfeJv-51" value="HTMLTag" style="shape=umlLifeline;perimeter=lifelinePerimeter;whiteSpace=wrap;html=1;container=0;dropTarget=0;collapsible=0;recursiveResize=0;outlineConnect=0;portConstraint=eastwest;newEdgeStyle={&quot;edgeStyle&quot;:&quot;elbowEdgeStyle&quot;,&quot;elbow&quot;:&quot;vertical&quot;,&quot;curved&quot;:0,&quot;rounded&quot;:0};" vertex="1" parent="1">
          <mxGeometry x="1155" y="210" width="70" height="640" as="geometry" />
        </mxCell>
        <mxCell id="M9PD0NIGUe1Zu08BfeJv-52" value="" style="html=1;points=[];perimeter=orthogonalPerimeter;outlineConnect=0;targetShapes=umlLifeline;portConstraint=eastwest;newEdgeStyle={&quot;edgeStyle&quot;:&quot;elbowEdgeStyle&quot;,&quot;elbow&quot;:&quot;vertical&quot;,&quot;curved&quot;:0,&quot;rounded&quot;:0};" vertex="1" parent="M9PD0NIGUe1Zu08BfeJv-51">
          <mxGeometry x="30" y="570" width="10" height="20" as="geometry" />
        </mxCell>
        <mxCell id="M9PD0NIGUe1Zu08BfeJv-53" value="show(cId)" style="html=1;verticalAlign=bottom;endArrow=block;edgeStyle=elbowEdgeStyle;elbow=vertical;curved=0;rounded=0;" edge="1" parent="1" source="M9PD0NIGUe1Zu08BfeJv-52" target="M9PD0NIGUe1Zu08BfeJv-12">
          <mxGeometry width="80" relative="1" as="geometry">
            <mxPoint x="1195" y="810" as="sourcePoint" />
            <mxPoint x="1285" y="810" as="targetPoint" />
            <Array as="points">
              <mxPoint x="1245" y="800" />
              <mxPoint x="1245" y="810" />
              <mxPoint x="1275" y="810" />
              <mxPoint x="1315" y="800" />
              <mxPoint x="1305" y="790" />
            </Array>
          </mxGeometry>
        </mxCell>
        <mxCell id="M9PD0NIGUe1Zu08BfeJv-54" value="GET /GetCoursesCalls?courseid =&amp;nbsp;" style="html=1;verticalAlign=bottom;endArrow=block;edgeStyle=elbowEdgeStyle;elbow=vertical;curved=0;rounded=0;" edge="1" parent="1" source="M9PD0NIGUe1Zu08BfeJv-12" target="M9PD0NIGUe1Zu08BfeJv-2">
          <mxGeometry width="80" relative="1" as="geometry">
            <mxPoint x="1030" y="830" as="sourcePoint" />
            <mxPoint x="1966.3157894736842" y="810" as="targetPoint" />
            <Array as="points">
              <mxPoint x="1280" y="820" />
            </Array>
          </mxGeometry>
        </mxCell>
        <mxCell id="M9PD0NIGUe1Zu08BfeJv-55" value="checkIfStudentIsSubscribedToCourse(userId, course.id) &lt;font color=&quot;#ff8000&quot;&gt;&lt;b&gt;?:[THROW StudentDAOException]&lt;/b&gt;&lt;/font&gt;" style="html=1;verticalAlign=bottom;endArrow=block;edgeStyle=elbowEdgeStyle;elbow=vertical;curved=0;rounded=0;" edge="1" parent="1" source="M9PD0NIGUe1Zu08BfeJv-18" target="M9PD0NIGUe1Zu08BfeJv-22">
          <mxGeometry width="80" relative="1" as="geometry">
            <mxPoint x="1475.0000000000002" y="529" as="sourcePoint" />
            <mxPoint x="1795" y="529" as="targetPoint" />
            <Array as="points">
              <mxPoint x="1745" y="529" />
              <mxPoint x="1625" y="519" />
            </Array>
          </mxGeometry>
        </mxCell>
        <mxCell id="M9PD0NIGUe1Zu08BfeJv-56" value="alt" style="shape=umlFrame;whiteSpace=wrap;html=1;pointerEvents=0;width=55;height=20;" vertex="1" parent="1">
          <mxGeometry x="1410" y="1010" width="930" height="340" as="geometry" />
        </mxCell>
        <mxCell id="M9PD0NIGUe1Zu08BfeJv-57" value="getAttribute(&quot;user&quot;)" style="html=1;verticalAlign=bottom;endArrow=block;edgeStyle=elbowEdgeStyle;elbow=vertical;curved=0;rounded=0;" edge="1" parent="1" source="M9PD0NIGUe1Zu08BfeJv-2" target="M9PD0NIGUe1Zu08BfeJv-59">
          <mxGeometry x="-0.003" width="80" relative="1" as="geometry">
            <mxPoint x="1775" y="864.47" as="sourcePoint" />
            <mxPoint x="1380" y="890" as="targetPoint" />
            <Array as="points">
              <mxPoint x="1610" y="870" />
            </Array>
            <mxPoint as="offset" />
          </mxGeometry>
        </mxCell>
        <mxCell id="M9PD0NIGUe1Zu08BfeJv-58" value="user" style="html=1;verticalAlign=bottom;endArrow=open;dashed=1;endSize=8;edgeStyle=elbowEdgeStyle;elbow=vertical;curved=0;rounded=0;" edge="1" parent="1" source="M9PD0NIGUe1Zu08BfeJv-59" target="M9PD0NIGUe1Zu08BfeJv-2">
          <mxGeometry relative="1" as="geometry">
            <mxPoint x="1880" y="894.47" as="sourcePoint" />
            <mxPoint x="1775" y="894.47" as="targetPoint" />
            <Array as="points">
              <mxPoint x="1845" y="894.47" />
              <mxPoint x="1865" y="894.47" />
            </Array>
          </mxGeometry>
        </mxCell>
        <mxCell id="M9PD0NIGUe1Zu08BfeJv-59" value="" style="html=1;points=[];perimeter=orthogonalPerimeter;outlineConnect=0;targetShapes=umlLifeline;portConstraint=eastwest;newEdgeStyle={&quot;edgeStyle&quot;:&quot;elbowEdgeStyle&quot;,&quot;elbow&quot;:&quot;vertical&quot;,&quot;curved&quot;:0,&quot;rounded&quot;:0};" vertex="1" parent="1">
          <mxGeometry x="1485" y="870" width="10" height="25" as="geometry" />
        </mxCell>
        <mxCell id="M9PD0NIGUe1Zu08BfeJv-60" value="[user.role.equals(&quot;Lecturer&quot;)]" style="text;html=1;strokeColor=none;fillColor=none;align=center;verticalAlign=middle;whiteSpace=wrap;rounded=0;fontStyle=3;fontColor=#FF8000;" vertex="1" parent="1">
          <mxGeometry x="1860" y="1020" width="95" height="20" as="geometry" />
        </mxCell>
        <mxCell id="M9PD0NIGUe1Zu08BfeJv-61" value="GraduationCallDAO" style="shape=umlLifeline;perimeter=lifelinePerimeter;whiteSpace=wrap;html=1;container=0;dropTarget=0;collapsible=0;recursiveResize=0;outlineConnect=0;portConstraint=eastwest;newEdgeStyle={&quot;edgeStyle&quot;:&quot;elbowEdgeStyle&quot;,&quot;elbow&quot;:&quot;vertical&quot;,&quot;curved&quot;:0,&quot;rounded&quot;:0};fillColor=#1ba1e2;fontColor=#ffffff;strokeColor=#006EAF;" vertex="1" parent="1">
          <mxGeometry x="2105" y="210" width="160" height="1150" as="geometry" />
        </mxCell>
        <mxCell id="M9PD0NIGUe1Zu08BfeJv-62" value="" style="html=1;points=[];perimeter=orthogonalPerimeter;outlineConnect=0;targetShapes=umlLifeline;portConstraint=eastwest;newEdgeStyle={&quot;edgeStyle&quot;:&quot;elbowEdgeStyle&quot;,&quot;elbow&quot;:&quot;vertical&quot;,&quot;curved&quot;:0,&quot;rounded&quot;:0};" vertex="1" parent="M9PD0NIGUe1Zu08BfeJv-61">
          <mxGeometry x="75" y="907.5" width="10" height="25" as="geometry" />
        </mxCell>
        <mxCell id="M9PD0NIGUe1Zu08BfeJv-63" value="" style="html=1;points=[];perimeter=orthogonalPerimeter;outlineConnect=0;targetShapes=umlLifeline;portConstraint=eastwest;newEdgeStyle={&quot;edgeStyle&quot;:&quot;elbowEdgeStyle&quot;,&quot;elbow&quot;:&quot;vertical&quot;,&quot;curved&quot;:0,&quot;rounded&quot;:0};" vertex="1" parent="M9PD0NIGUe1Zu08BfeJv-61">
          <mxGeometry x="75" y="1020" width="10" height="25" as="geometry" />
        </mxCell>
        <mxCell id="M9PD0NIGUe1Zu08BfeJv-64" value="findAllDegreeCallByCourseId(courseId)" style="html=1;verticalAlign=bottom;endArrow=block;edgeStyle=elbowEdgeStyle;elbow=vertical;curved=0;rounded=0;" edge="1" parent="M9PD0NIGUe1Zu08BfeJv-61" target="M9PD0NIGUe1Zu08BfeJv-63">
          <mxGeometry width="80" relative="1" as="geometry">
            <mxPoint x="-130" y="1022.5" as="sourcePoint" />
            <mxPoint x="-45" y="1012.5" as="targetPoint" />
            <Array as="points">
              <mxPoint x="-55" y="1022.5" />
              <mxPoint x="-115" y="1022.5" />
            </Array>
          </mxGeometry>
        </mxCell>
        <mxCell id="M9PD0NIGUe1Zu08BfeJv-65" value="calls" style="html=1;verticalAlign=bottom;endArrow=open;dashed=1;endSize=8;edgeStyle=elbowEdgeStyle;elbow=vertical;curved=0;rounded=0;exitX=0;exitY=0.9;exitDx=0;exitDy=0;exitPerimeter=0;" edge="1" parent="M9PD0NIGUe1Zu08BfeJv-61" source="M9PD0NIGUe1Zu08BfeJv-63">
          <mxGeometry relative="1" as="geometry">
            <mxPoint x="75" y="1052.5" as="sourcePoint" />
            <mxPoint x="-130" y="1042.5" as="targetPoint" />
          </mxGeometry>
        </mxCell>
        <mxCell id="M9PD0NIGUe1Zu08BfeJv-66" value="alt" style="shape=umlFrame;whiteSpace=wrap;html=1;pointerEvents=0;width=55;height=20;" vertex="1" parent="1">
          <mxGeometry x="1380" y="970" width="980" height="510" as="geometry" />
        </mxCell>
        <mxCell id="M9PD0NIGUe1Zu08BfeJv-67" value="try" style="text;html=1;strokeColor=none;fillColor=none;align=center;verticalAlign=middle;whiteSpace=wrap;rounded=0;fontStyle=3;fontColor=#FF8000;" vertex="1" parent="1">
          <mxGeometry x="1900" y="980" width="95" height="20" as="geometry" />
        </mxCell>
        <mxCell id="M9PD0NIGUe1Zu08BfeJv-68" value="[else if: user.role.equals(&quot;Student&quot;)]" style="text;html=1;strokeColor=none;fillColor=none;align=center;verticalAlign=middle;whiteSpace=wrap;rounded=0;fontStyle=3;fontColor=#FF8000;" vertex="1" parent="1">
          <mxGeometry x="1775" y="1170" width="220" height="20" as="geometry" />
        </mxCell>
        <mxCell id="M9PD0NIGUe1Zu08BfeJv-69" value="" style="line;strokeWidth=3;fillColor=#80FF00;align=left;verticalAlign=middle;spacingTop=-1;spacingLeft=3;spacingRight=3;rotatable=0;labelPosition=right;points=[];portConstraint=eastwest;strokeColor=#80FF00;dashed=1;fontColor=#ffffff;fontStyle=0" vertex="1" parent="1">
          <mxGeometry x="1400" y="1160" width="950" height="8" as="geometry" />
        </mxCell>
        <mxCell id="M9PD0NIGUe1Zu08BfeJv-70" value="findAllDegreeCallByCourseId(courseId)" style="html=1;verticalAlign=bottom;endArrow=block;edgeStyle=elbowEdgeStyle;elbow=vertical;curved=0;rounded=0;" edge="1" parent="1" source="M9PD0NIGUe1Zu08BfeJv-2" target="M9PD0NIGUe1Zu08BfeJv-62">
          <mxGeometry width="80" relative="1" as="geometry">
            <mxPoint x="1980" y="1110" as="sourcePoint" />
            <mxPoint x="2060" y="1110" as="targetPoint" />
            <Array as="points">
              <mxPoint x="2050" y="1120" />
              <mxPoint x="1990" y="1120" />
            </Array>
          </mxGeometry>
        </mxCell>
        <mxCell id="M9PD0NIGUe1Zu08BfeJv-71" value="calls" style="html=1;verticalAlign=bottom;endArrow=open;dashed=1;endSize=8;edgeStyle=elbowEdgeStyle;elbow=vertical;curved=0;rounded=0;exitX=0;exitY=0.9;exitDx=0;exitDy=0;exitPerimeter=0;" edge="1" parent="1" source="M9PD0NIGUe1Zu08BfeJv-62" target="M9PD0NIGUe1Zu08BfeJv-2">
          <mxGeometry relative="1" as="geometry">
            <mxPoint x="2180" y="1150" as="sourcePoint" />
            <mxPoint x="2100" y="1150" as="targetPoint" />
          </mxGeometry>
        </mxCell>
        <mxCell id="M9PD0NIGUe1Zu08BfeJv-72" value="StudentDAO" style="shape=umlLifeline;perimeter=lifelinePerimeter;whiteSpace=wrap;html=1;container=0;dropTarget=0;collapsible=0;recursiveResize=0;outlineConnect=0;portConstraint=eastwest;newEdgeStyle={&quot;edgeStyle&quot;:&quot;elbowEdgeStyle&quot;,&quot;elbow&quot;:&quot;vertical&quot;,&quot;curved&quot;:0,&quot;rounded&quot;:0};fillColor=#1ba1e2;fontColor=#ffffff;strokeColor=#006EAF;" vertex="1" parent="1">
          <mxGeometry x="2280" y="210" width="90" height="1150" as="geometry" />
        </mxCell>
        <mxCell id="M9PD0NIGUe1Zu08BfeJv-73" value="" style="html=1;points=[];perimeter=orthogonalPerimeter;outlineConnect=0;targetShapes=umlLifeline;portConstraint=eastwest;newEdgeStyle={&quot;edgeStyle&quot;:&quot;elbowEdgeStyle&quot;,&quot;elbow&quot;:&quot;vertical&quot;,&quot;curved&quot;:0,&quot;rounded&quot;:0};" vertex="1" parent="M9PD0NIGUe1Zu08BfeJv-72">
          <mxGeometry x="40" y="1000" width="10" height="25" as="geometry" />
        </mxCell>
        <mxCell id="M9PD0NIGUe1Zu08BfeJv-22" value="" style="html=1;points=[];perimeter=orthogonalPerimeter;outlineConnect=0;targetShapes=umlLifeline;portConstraint=eastwest;newEdgeStyle={&quot;edgeStyle&quot;:&quot;elbowEdgeStyle&quot;,&quot;elbow&quot;:&quot;vertical&quot;,&quot;curved&quot;:0,&quot;rounded&quot;:0};" vertex="1" parent="M9PD0NIGUe1Zu08BfeJv-72">
          <mxGeometry x="40" y="319" width="10" height="20" as="geometry" />
        </mxCell>
        <mxCell id="M9PD0NIGUe1Zu08BfeJv-74" value="checkIfStudentIsSubscribedToCourse(userId, courseId) &lt;br&gt;&lt;b&gt;&lt;font color=&quot;#ff8000&quot;&gt;?:[THROW StudentDAOException]&lt;/font&gt;&lt;/b&gt;" style="html=1;verticalAlign=bottom;endArrow=block;edgeStyle=elbowEdgeStyle;elbow=vertical;curved=0;rounded=0;" edge="1" parent="1" target="M9PD0NIGUe1Zu08BfeJv-73">
          <mxGeometry width="80" relative="1" as="geometry">
            <mxPoint x="1975" y="1209.38" as="sourcePoint" />
            <mxPoint x="2180" y="1209.38" as="targetPoint" />
            <Array as="points">
              <mxPoint x="2050" y="1209.38" />
              <mxPoint x="1990" y="1209.38" />
            </Array>
          </mxGeometry>
        </mxCell>
        <mxCell id="M9PD0NIGUe1Zu08BfeJv-75" value="" style="line;strokeWidth=3;fillColor=#80FF00;align=left;verticalAlign=middle;spacingTop=-1;spacingLeft=3;spacingRight=3;rotatable=0;labelPosition=right;points=[];portConstraint=eastwest;strokeColor=#80FF00;dashed=1;fontColor=#ffffff;fontStyle=0" vertex="1" parent="1">
          <mxGeometry x="1400" y="1270" width="950" height="8" as="geometry" />
        </mxCell>
        <mxCell id="M9PD0NIGUe1Zu08BfeJv-76" value="[else]" style="text;html=1;strokeColor=none;fillColor=none;align=center;verticalAlign=middle;whiteSpace=wrap;rounded=0;fontStyle=3;fontColor=#FF8000;" vertex="1" parent="1">
          <mxGeometry x="1912.5" y="1278" width="70" height="20" as="geometry" />
        </mxCell>
        <mxCell id="M9PD0NIGUe1Zu08BfeJv-77" value="redirect(&quot;/Logout&quot;)" style="html=1;verticalAlign=bottom;endArrow=block;edgeStyle=elbowEdgeStyle;elbow=vertical;curved=0;rounded=0;" edge="1" parent="1" source="M9PD0NIGUe1Zu08BfeJv-2">
          <mxGeometry width="80" relative="1" as="geometry">
            <mxPoint x="1970" y="1300" as="sourcePoint" />
            <mxPoint x="2150" y="1310" as="targetPoint" />
            <Array as="points">
              <mxPoint x="2080" y="1310" />
            </Array>
          </mxGeometry>
        </mxCell>
        <mxCell id="M9PD0NIGUe1Zu08BfeJv-78" value="return" style="html=1;verticalAlign=bottom;endArrow=open;dashed=1;endSize=8;edgeStyle=elbowEdgeStyle;elbow=vertical;curved=0;rounded=0;" edge="1" parent="1" source="M9PD0NIGUe1Zu08BfeJv-2">
          <mxGeometry relative="1" as="geometry">
            <mxPoint x="1970" y="1320" as="sourcePoint" />
            <mxPoint x="1610" y="1322" as="targetPoint" />
          </mxGeometry>
        </mxCell>
        <mxCell id="M9PD0NIGUe1Zu08BfeJv-79" value="Catch(SQLException | CourseDAOException | NumberFormatException | NullPointerException | StudentDAOException)" style="text;html=1;align=center;verticalAlign=middle;whiteSpace=wrap;rounded=0;fontStyle=3;fontColor=#FF8000;" vertex="1" parent="1">
          <mxGeometry x="1680" y="1390" width="320" height="20" as="geometry" />
        </mxCell>
        <mxCell id="M9PD0NIGUe1Zu08BfeJv-80" value="setStatus(errorCode)" style="html=1;verticalAlign=bottom;endArrow=block;edgeStyle=elbowEdgeStyle;elbow=vertical;curved=0;rounded=0;" edge="1" parent="1" target="M9PD0NIGUe1Zu08BfeJv-47">
          <mxGeometry x="-0.003" width="80" relative="1" as="geometry">
            <mxPoint x="1965" y="1450" as="sourcePoint" />
            <mxPoint x="1565" y="1430" as="targetPoint" />
            <Array as="points">
              <mxPoint x="1870" y="1450" />
              <mxPoint x="1910" y="1440" />
              <mxPoint x="1680" y="1430" />
            </Array>
            <mxPoint as="offset" />
          </mxGeometry>
        </mxCell>
        <mxCell id="M9PD0NIGUe1Zu08BfeJv-81" value="callsToShow" style="html=1;verticalAlign=bottom;endArrow=open;dashed=1;endSize=8;edgeStyle=elbowEdgeStyle;elbow=vertical;curved=0;rounded=0;" edge="1" parent="1" source="M9PD0NIGUe1Zu08BfeJv-2" target="M9PD0NIGUe1Zu08BfeJv-12">
          <mxGeometry relative="1" as="geometry">
            <mxPoint x="1965" y="1480" as="sourcePoint" />
            <mxPoint x="1440" y="1480" as="targetPoint" />
            <Array as="points">
              <mxPoint x="1750" y="1500" />
              <mxPoint x="1865" y="1480" />
            </Array>
          </mxGeometry>
        </mxCell>
        <mxCell id="M9PD0NIGUe1Zu08BfeJv-82" value="" style="line;strokeWidth=3;fillColor=#80FF00;align=left;verticalAlign=middle;spacingTop=-1;spacingLeft=3;spacingRight=3;rotatable=0;labelPosition=right;points=[];portConstraint=eastwest;strokeColor=#80FF00;dashed=1;fontColor=#ffffff;fontStyle=0" vertex="1" parent="1">
          <mxGeometry x="1370" y="1360" width="1010" height="8" as="geometry" />
        </mxCell>
        <mxCell id="M9PD0NIGUe1Zu08BfeJv-23" value="" style="html=1;points=[];perimeter=orthogonalPerimeter;outlineConnect=0;targetShapes=umlLifeline;portConstraint=eastwest;newEdgeStyle={&quot;edgeStyle&quot;:&quot;elbowEdgeStyle&quot;,&quot;elbow&quot;:&quot;vertical&quot;,&quot;curved&quot;:0,&quot;rounded&quot;:0};" vertex="1" parent="1">
          <mxGeometry x="1835" y="1092.5" width="10" height="25" as="geometry" />
        </mxCell>
        <mxCell id="M9PD0NIGUe1Zu08BfeJv-24" value="checkIfCourseIsTaughtBy&lt;br&gt;Lecturer(courseId, userId) &lt;br&gt;&lt;b&gt;&lt;font color=&quot;#ff8000&quot;&gt;?:[THROW CourseDAOException]&lt;/font&gt;&lt;/b&gt;" style="html=1;verticalAlign=bottom;endArrow=block;edgeStyle=elbowEdgeStyle;elbow=vertical;curved=0;rounded=0;" edge="1" parent="1" target="M9PD0NIGUe1Zu08BfeJv-23">
          <mxGeometry width="80" relative="1" as="geometry">
            <mxPoint x="1965" y="1092.5" as="sourcePoint" />
            <mxPoint x="1970" y="1082.5" as="targetPoint" />
            <Array as="points">
              <mxPoint x="1900" y="1092.5" />
              <mxPoint x="1910" y="1072.5" />
              <mxPoint x="1910" y="1062.5" />
            </Array>
          </mxGeometry>
        </mxCell>
      </root>
    </mxGraphModel>
  </diagram>
</mxfile>
